<?xml version="1.0" encoding="UTF-8" standalone="no"?>
<!DOCTYPE svg PUBLIC "-//W3C//DTD SVG 1.1//EN"
 "http://www.w3.org/Graphics/SVG/1.1/DTD/svg11.dtd">
<!-- Generated by graphviz version 2.43.0 (0)
 -->
<!-- Title: %3 Pages: 1 -->
<svg width="283pt" height="436pt"
 viewBox="0.00 0.00 283.00 436.00" xmlns="http://www.w3.org/2000/svg" xmlns:xlink="http://www.w3.org/1999/xlink">
<g id="graph0" class="graph" transform="scale(1 1) rotate(0) translate(4 432)">
<title>%3</title>
<polygon fill="white" stroke="transparent" points="-4,4 -4,-432 279,-432 279,4 -4,4"/>
<!-- 1154142981050189772 -->
<g id="node1" class="node">
<title>1154142981050189772</title>
<g id="a_node1"><a xlink:title="A Blockwise Layer with 100 Tasks.&#10;Array Shape: (10000, 10000)&#10;Data Type: float64&#10;Chunk Size: (1000, 1000)&#10;Chunk Type: numpy.ndarray&#10;">
<polygon fill="none" stroke="black" points="275,-52 0,-52 0,0 275,0 275,-52"/>
<text text-anchor="middle" x="137.5" y="-16" font-family="Helvetica,sans-Serif" font-size="40.00">ones_like&#45;#0</text>
</a>
</g>
</g>
<!-- &#45;4159750943924149376 -->
<g id="node2" class="node">
<title>&#45;4159750943924149376</title>
<g id="a_node2"><a xlink:title="A Blockwise Layer with 100 Tasks.&#10;Array Shape: (10000, 10000)&#10;Data Type: float64&#10;Chunk Size: (1000, 1000)&#10;Chunk Type: numpy.ndarray&#10;">
<polygon fill="none" stroke="black" points="225.5,-140 49.5,-140 49.5,-88 225.5,-88 225.5,-140"/>
<text text-anchor="middle" x="137.5" y="-104" font-family="Helvetica,sans-Serif" font-size="40.00">sum&#45;#1</text>
</a>
</g>
</g>
<!-- 1154142981050189772&#45;&gt;&#45;4159750943924149376 -->
<g id="edge1" class="edge">
<title>1154142981050189772&#45;&gt;&#45;4159750943924149376</title>
<path fill="none" stroke="black" d="M137.5,-52.34C137.5,-60.3 137.5,-69.24 137.5,-77.76"/>
<polygon fill="black" stroke="black" points="134,-77.84 137.5,-87.84 141,-77.84 134,-77.84"/>
</g>
<!-- 3430934677083052385 -->
<g id="node3" class="node">
<title>3430934677083052385</title>
<g id="a_node3"><a xlink:title="A Materialized Layer with 25 Tasks.&#10;Array Shape: (5, 5)&#10;Data Type: float64&#10;Chunk Size: (1, 1)&#10;Chunk Type: numpy.ndarray&#10;">
<polygon fill="none" stroke="black" points="237,-212 38,-212 38,-176 237,-176 237,-212"/>
<text text-anchor="middle" x="137.5" y="-187.8" font-family="Helvetica,sans-Serif" font-size="24.00">sum&#45;partial&#45;#2</text>
</a>
</g>
</g>
<!-- &#45;4159750943924149376&#45;&gt;3430934677083052385 -->
<g id="edge2" class="edge">
<title>&#45;4159750943924149376&#45;&gt;3430934677083052385</title>
<path fill="none" stroke="black" d="M137.5,-140.11C137.5,-148.16 137.5,-157.12 137.5,-165.34"/>
<polygon fill="black" stroke="black" points="134,-165.59 137.5,-175.59 141,-165.59 134,-165.59"/>
</g>
<!-- 663645806818317179 -->
<g id="node4" class="node">
<title>663645806818317179</title>
<g id="a_node4"><a xlink:title="A Materialized Layer with 9 Tasks.&#10;Array Shape: (3, 3)&#10;Data Type: float64&#10;Chunk Size: (1, 1)&#10;Chunk Type: numpy.ndarray&#10;">
<polygon fill="none" stroke="black" points="225.5,-284 49.5,-284 49.5,-248 225.5,-248 225.5,-284"/>
<text text-anchor="middle" x="137.5" y="-260.7" font-family="Helvetica,sans-Serif" font-size="21.00">sum&#45;partial&#45;#3</text>
</a>
</g>
</g>
<!-- 3430934677083052385&#45;&gt;663645806818317179 -->
<g id="edge3" class="edge">
<title>3430934677083052385&#45;&gt;663645806818317179</title>
<path fill="none" stroke="black" d="M137.5,-212.3C137.5,-220.02 137.5,-229.29 137.5,-237.89"/>
<polygon fill="black" stroke="black" points="134,-237.9 137.5,-247.9 141,-237.9 134,-237.9"/>
</g>
<!-- &#45;6897923671044784941 -->
<g id="node5" class="node">
<title>&#45;6897923671044784941</title>
<g id="a_node5"><a xlink:title="A Materialized Layer with 4 Tasks.&#10;Array Shape: (2, 2)&#10;Data Type: float64&#10;Chunk Size: (1, 1)&#10;Chunk Type: numpy.ndarray&#10;">
<polygon fill="none" stroke="black" points="221,-356 54,-356 54,-320 221,-320 221,-356"/>
<text text-anchor="middle" x="137.5" y="-333" font-family="Helvetica,sans-Serif" font-size="20.00">sum&#45;partial&#45;#4</text>
</a>
</g>
</g>
<!-- 663645806818317179&#45;&gt;&#45;6897923671044784941 -->
<g id="edge4" class="edge">
<title>663645806818317179&#45;&gt;&#45;6897923671044784941</title>
<path fill="none" stroke="black" d="M137.5,-284.3C137.5,-292.02 137.5,-301.29 137.5,-309.89"/>
<polygon fill="black" stroke="black" points="134,-309.9 137.5,-319.9 141,-309.9 134,-309.9"/>
</g>
<!-- &#45;5371574583692508186 -->
<g id="node6" class="node">
<title>&#45;5371574583692508186</title>
<g id="a_node6"><a xlink:title="A Materialized Layer with 1 Tasks.&#10;Array Shape: ()&#10;Data Type: float64&#10;Chunk Size: ()&#10;Chunk Type: numpy.ndarray&#10;">
<polygon fill="none" stroke="black" points="240,-428 35,-428 35,-392 240,-392 240,-428"/>
<text text-anchor="middle" x="137.5" y="-405" font-family="Helvetica,sans-Serif" font-size="20.00">sum&#45;aggregate&#45;#5</text>
</a>
</g>
</g>
<!-- &#45;6897923671044784941&#45;&gt;&#45;5371574583692508186 -->
<g id="edge5" class="edge">
<title>&#45;6897923671044784941&#45;&gt;&#45;5371574583692508186</title>
<path fill="none" stroke="black" d="M137.5,-356.3C137.5,-364.02 137.5,-373.29 137.5,-381.89"/>
<polygon fill="black" stroke="black" points="134,-381.9 137.5,-391.9 141,-381.9 134,-381.9"/>
</g>
</g>
</svg>
